<svg width="14" height="14" viewBox="0 0 14 14" fill="none" xmlns="http://www.w3.org/2000/svg">
<path d="M4.31713 12.1863H4.31573C4.06723 12.3242 3.74803 12.2311 3.60523 11.9427C3.5473 11.8244 3.52796 11.691 3.54993 11.5612V11.5605L4.02733 8.67576C4.03632 8.6212 4.03225 8.56529 4.01546 8.51261C3.99867 8.45992 3.96963 8.41196 3.93073 8.37267L1.92313 6.34266V6.34126C1.81574 6.22928 1.75423 6.08111 1.75073 5.92599C1.74723 5.77087 1.802 5.62008 1.90423 5.50336C1.98448 5.41319 2.09364 5.35379 2.21293 5.33536L5.00173 4.91466C5.05841 4.9061 5.11211 4.88375 5.15812 4.84957C5.20414 4.8154 5.24105 4.77045 5.26563 4.71866L6.52423 2.06916V2.06776C6.66213 1.77586 6.97923 1.67576 7.23123 1.80736C7.33916 1.86506 7.42451 1.95653 7.47553 2.06776L7.47623 2.06916L8.73483 4.71866C8.75941 4.77045 8.79632 4.8154 8.84234 4.84957C8.88835 4.88375 8.94206 4.9061 8.99873 4.91466L11.7861 5.33466H11.7875C12.0654 5.37666 12.2894 5.65876 12.2446 5.99616C12.2282 6.12627 12.1697 6.24745 12.078 6.34126L12.0773 6.34196L10.0697 8.37196C10.0307 8.41134 10.0016 8.45941 9.98483 8.51223C9.96804 8.56504 9.96403 8.62109 9.97313 8.67576L10.4498 11.5605V11.5619C10.5065 11.8979 10.2923 12.1898 10.0144 12.2416C9.90161 12.2625 9.78502 12.2434 9.68473 12.1877L9.68333 12.187L7.16753 10.815C7.11619 10.787 7.05868 10.7724 7.00023 10.7724C6.94178 10.7724 6.88427 10.787 6.83293 10.815L4.31713 12.1863Z" fill="#FF8400"/>
</svg>
