<?xml version="1.0" encoding="utf-8"?><svg xmlns="http://www.w3.org/2000/svg" xmlns:xlink="http://www.w3.org/1999/xlink"><symbol viewBox="0 0 476.213 476.213" id="arrow-right" xmlns="http://www.w3.org/2000/svg"><path d="M345.606 107.5l-21.212 21.213 94.393 94.394H0v30h418.787L324.394 347.5l21.212 21.213 130.607-130.607z"/></symbol><symbol viewBox="0 0 193.056 193.056" id="cart" xmlns="http://www.w3.org/2000/svg"><path d="M163.022 147.499H62.417l-2.13-8.714h114.017l18.466-80.448L42.135 40.28 35.234 0H.286v15.217h22.116l3.969 23.173-.32-.038 18.184 100.435h.383l2.214 9.049c-10.774 1.798-19.021 11.164-19.021 22.44 0 12.562 10.218 22.78 22.777 22.78 12.559 0 22.78-10.218 22.78-22.78 0-2.65-.479-5.192-1.319-7.558h69.512a22.648 22.648 0 00-1.319 7.558c0 12.562 10.218 22.78 22.775 22.78 12.562 0 22.78-10.218 22.78-22.78.008-12.558-10.213-22.777-22.775-22.777zM44.818 55.925l129.331 15.507-11.968 52.136H56.946L46.89 68.018l-2.072-12.093zm5.776 121.912c-4.169 0-7.56-3.393-7.56-7.563 0-4.167 3.391-7.558 7.56-7.558s7.56 3.394 7.56 7.558c0 4.172-3.391 7.563-7.56 7.563zm112.428.003c-4.167 0-7.558-3.393-7.558-7.563 0-4.167 3.393-7.558 7.558-7.558 4.172 0 7.563 3.393 7.563 7.558.003 4.169-3.391 7.563-7.563 7.563z"/></symbol><symbol viewBox="0 -24 480 480" id="chat" xmlns="http://www.w3.org/2000/svg"><path d="M408 0H72C32.254.043.043 32.254 0 72v208c.043 39.746 32.254 71.957 72 72h22.238L80.16 422.398c-.605 3.028.586 6.13 3.055 7.977s5.781 2.11 8.512.672L241.977 352H408c39.746-.043 71.957-32.254 72-72V72c-.043-39.746-32.254-71.957-72-72zm56 280c-.035 30.914-25.086 55.965-56 56H240c-1.3 0-2.578.316-3.727.922L99.145 409.098l12.695-63.496A7.997 7.997 0 00104 336H72c-30.914-.035-55.965-25.086-56-56V72c.035-30.914 25.086-55.965 56-56h336c30.914.035 55.965 25.086 56 56zm0 0"/></symbol><symbol viewBox="0 0 407.437 407.437" id="chevron-down" xmlns="http://www.w3.org/2000/svg"><path d="M386.258 91.567l-182.54 181.945L21.179 91.567 0 112.815 203.718 315.87l203.719-203.055z"/></symbol><symbol viewBox="0 0 407.436 407.436" id="chevron-left" xmlns="http://www.w3.org/2000/svg"><path d="M315.869 21.178L294.621 0 91.566 203.718l203.055 203.718 21.248-21.178-181.945-182.54z"/></symbol><symbol viewBox="0 0 407.436 407.436" id="chevron-right" xmlns="http://www.w3.org/2000/svg"><path d="M112.814 0L91.566 21.178l181.946 182.54-181.946 182.54 21.248 21.178 203.055-203.718z"/></symbol><symbol viewBox="0 0 407.436 407.436" id="chevron-up" xmlns="http://www.w3.org/2000/svg"><path d="M203.718 91.567L0 294.621l21.179 21.248 182.539-181.945 182.54 181.945 21.178-21.248z"/></symbol><symbol viewBox="0 0 357 357" id="close" xmlns="http://www.w3.org/2000/svg"><path d="M357 35.7L321.3 0 178.5 142.8 35.7 0 0 35.7l142.8 142.8L0 321.3 35.7 357l142.8-142.8L321.3 357l35.7-35.7-142.8-142.8z"/></symbol><symbol viewBox="0 0 72 56" id="delivery" xmlns="http://www.w3.org/2000/svg"><path fill-rule="evenodd" clip-rule="evenodd" d="M37.162 32.516V0H0v32.516h37.162zM12.775 2.323H24.39V9.29H12.775V2.323zm11.614 27.87H12.775v-6.967H24.39v6.968zm-13.936 0H2.324V2.324h8.13v9.29H26.71v-9.29h8.129v27.87h-8.13v-9.29H10.454v9.29zM56.58 17.42H39.484v17.42H0v8.128a3.488 3.488 0 003.484 3.485h1.16V44.13h-1.16a1.154 1.154 0 01-.56-.144 1.16 1.16 0 01-.602-1.017v-5.807h39.485v-17.42H56.58a3.492 3.492 0 013.414 2.802l1.715 8.572 5.441 1.555a3.5 3.5 0 012.528 3.35v6.947c0 .642-.522 1.162-1.162 1.162h-1.16v2.323h1.16A3.488 3.488 0 0072 42.968v-6.946a5.833 5.833 0 00-4.21-5.584l-4.081-1.165-1.436-7.184a5.822 5.822 0 00-5.693-4.669zM20.902 43.447c-1.422-2.368-4.008-3.963-6.967-3.963-4.482 0-8.128 3.648-8.128 8.13 0 4.48 3.646 8.128 8.128 8.128 2.96 0 5.545-1.594 6.967-3.963 1.424 2.369 4.01 3.963 6.97 3.963 4.481 0 8.128-3.647 8.128-8.129 0-4.481-3.647-8.129-8.129-8.129-2.959 0-5.545 1.595-6.969 3.963zm12.776 4.166a5.813 5.813 0 01-5.807 5.806 5.813 5.813 0 01-5.806-5.806 5.814 5.814 0 015.806-5.806 5.814 5.814 0 015.807 5.806zm-13.936 0a5.813 5.813 0 01-5.807 5.806 5.813 5.813 0 01-5.806-5.806 5.814 5.814 0 015.806-5.806 5.814 5.814 0 015.807 5.806zm38.322-8.129c4.483 0 8.13 3.648 8.13 8.13 0 4.48-3.647 8.128-8.13 8.128-4.482 0-8.129-3.647-8.129-8.129 0-4.481 3.647-8.129 8.13-8.129zm0 13.935a5.813 5.813 0 005.807-5.806 5.814 5.814 0 00-5.806-5.806 5.814 5.814 0 00-5.807 5.806 5.813 5.813 0 005.806 5.806zm0-9.29a3.488 3.488 0 013.485 3.484 3.488 3.488 0 01-3.484 3.484 3.487 3.487 0 01-3.483-3.484 3.487 3.487 0 013.483-3.483zm0 4.646c.641 0 1.163-.52 1.163-1.162 0-.64-.522-1.16-1.162-1.16a1.162 1.162 0 000 2.322zM13.936 44.13a3.488 3.488 0 013.485 3.483 3.488 3.488 0 01-3.485 3.484 3.487 3.487 0 01-3.482-3.484 3.487 3.487 0 013.482-3.483zm0 4.645c.641 0 1.163-.52 1.163-1.162a1.162 1.162 0 10-1.824.952l.081.054.041.024a1.222 1.222 0 00.405.124l.047.005.087.003zm17.42-1.162a3.488 3.488 0 00-3.484-3.483 3.487 3.487 0 00-3.482 3.483 3.487 3.487 0 003.482 3.484 3.488 3.488 0 003.485-3.484zm-2.322 0c0 .641-.521 1.162-1.162 1.162-.289 0-.555-.107-.758-.284a1.162 1.162 0 01.758-2.04c.64.001 1.162.522 1.162 1.162zm8.13-3.483h11.612v2.322H37.162V44.13zm6.964-22.065H55.95c1.104 0 2.063.785 2.278 1.866l.974 4.873.024 2.551H44.127v-9.29zm2.324 6.968H56.88l-.93-4.646h-9.498v4.646z"/></symbol><symbol viewBox="0 0 512 512" id="dot" xmlns="http://www.w3.org/2000/svg"><path d="M425.951 89.021C386.864 32.451 324.917 0 256.006 0S125.148 32.451 86.061 89.021c-38.895 56.284-47.876 127.541-24.072 190.496 6.367 17.192 16.488 33.895 30.01 49.547l150.378 176.634A17.895 17.895 0 00256.006 512a17.892 17.892 0 0013.629-6.302l150.336-176.586c13.582-15.742 23.69-32.427 30.004-49.481 23.852-63.069 14.871-134.326-24.024-190.61zm-9.5 178.072c-4.869 13.158-12.818 26.167-23.613 38.68-.03.03-.06.06-.084.096L256.006 466.487 119.174 305.768c-10.789-12.502-18.738-25.51-23.655-38.794-19.686-52.065-12.215-110.981 19.991-157.592 32.307-46.76 83.519-73.578 140.496-73.578 56.976 0 108.182 26.817 140.49 73.578 32.212 46.611 39.689 105.527 19.955 157.711z"/><path d="M256.006 106.219c-55.276 0-100.252 44.97-100.252 100.252s44.97 100.252 100.252 100.252 100.252-44.97 100.252-100.252c0-55.276-44.976-100.252-100.252-100.252zm0 164.699c-35.536 0-64.448-28.912-64.448-64.448 0-35.536 28.912-64.448 64.448-64.448 35.536 0 64.448 28.912 64.448 64.448s-28.912 64.448-64.448 64.448z"/></symbol><symbol viewBox="0 0 51 33" id="inform" xmlns="http://www.w3.org/2000/svg"><path fill-rule="evenodd" clip-rule="evenodd" d="M2.5 30.454V2.5h46v27.954h-46zM0 2a2 2 0 012-2h47a2 2 0 012 2v28.954a2 2 0 01-2 2H2a2 2 0 01-2-2V2zm7.208 11.192V7.208h16.185v5.984H7.208zm-2.5-6.484a2 2 0 012-2h17.185a2 2 0 012 2v6.984a2 2 0 01-2 2H6.708a2 2 0 01-2-2V6.708zm26.038.5v18.538h13.046V7.208H30.746zm-.5-2.5a2 2 0 00-2 2v19.538a2 2 0 002 2h14.046a2 2 0 002-2V6.708a2 2 0 00-2-2H30.246zM7.208 25.746v-5.984h16.185v5.984H7.208zm-2.5-6.484a2 2 0 012-2h17.185a2 2 0 012 2v6.984a2 2 0 01-2 2H6.708a2 2 0 01-2-2v-6.984z"/></symbol><symbol viewBox="0 0 51 48" id="kids" xmlns="http://www.w3.org/2000/svg"><path fill-rule="evenodd" clip-rule="evenodd" d="M45.996 1.584l-1.165 2.654 4.8 6.985a2.049 2.049 0 01-.454 2.82l-2.354 1.765a2.213 2.213 0 01-2.289.21c-1.324-.63-2.28-.787-2.84-.47-1.13.64-1.4 3.492-1.685 6.51a89.732 89.732 0 01-.368 3.41c-.649 4.864-2.687 9.954-3.979 12.816 2.342-1.004 4.668-2.302 6.969-3.894a3.293 3.293 0 014.504.726l.237.312c.55.725.775 1.621.633 2.524a3.354 3.354 0 01-1.396 2.22c-7.307 5.054-14.935 7.617-22.673 7.617-10.6 0-18.697-4.764-22.58-7.605a3.308 3.308 0 01-.447-4.949l.236-.251a3.307 3.307 0 014.408-.375 32.087 32.087 0 007.228 4.068c-1.516-3.574-2.97-8.01-4.335-13.239l-4.135 3.413a1 1 0 01-1.636-.77V15.758a5.153 5.153 0 015.147-5.147h1.59c2.359 0 4.33 1.604 4.937 3.772a8.688 8.688 0 012.305-.321H30.22c.649-5.54 2.596-9.526 5.794-11.855 4.248-3.094 9.083-2.047 9.288-2a.998.998 0 01.695 1.376zM30.121 16.063H18.947v.568a5.593 5.593 0 005.587 5.587 5.593 5.593 0 005.587-5.587v-.568zm-22.299-3.45a3.151 3.151 0 00-3.147 3.146v10.2l3.366-2.78a8.57 8.57 0 014.455-8.042 3.152 3.152 0 00-3.084-2.525h-1.59zm37.72 23.712a1.295 1.295 0 00-1.773-.29c-3.21 2.221-6.475 3.898-9.773 5.033l-.016.007-.021.008c-3.388 1.162-6.808 1.751-10.24 1.751-9.193 0-16.081-4.152-19.37-6.628a1.314 1.314 0 00-1.747.148l-.238.253a1.305 1.305 0 00.173 1.963c3.686 2.696 11.368 7.22 21.4 7.22 7.323 0 14.568-2.444 21.534-7.263.302-.209.5-.525.558-.889a1.304 1.304 0 00-.25-1l-.237-.313zm-21.822 4.51a28.35 28.35 0 003.735-.274v-8.129a2.728 2.728 0 00-2.725-2.724h-1.584a2.728 2.728 0 00-2.724 2.724v8.207c1.06.123 2.159.195 3.298.195zm21.673-26.622c.067.032.16.048.23-.005l2.354-1.765-4.78-6.97A2.11 2.11 0 0143 3.432l.621-1.414c-1.499-.071-4.118.111-6.45 1.82-2.865 2.1-4.564 5.896-5.049 11.28v1.512c0 4.184-3.403 7.587-7.587 7.587-4.183 0-7.587-3.403-7.587-7.587v-.568h-.293c-.896 0-1.758.185-2.556.517a.964.964 0 01-.322.136 6.61 6.61 0 00-2.365 1.914 6.598 6.598 0 00-1.184 5.723c1.588 6.184 3.364 11.429 5.147 15.233.967.291 1.984.542 3.048.743v-7.897a4.73 4.73 0 014.724-4.724h1.584a4.73 4.73 0 014.725 4.724v7.792c1.174-.24 2.346-.54 3.515-.926.793-1.6 3.896-8.151 4.688-14.095.148-1.106.252-2.198.35-3.24l.01-.094v-.002c.365-3.857.653-6.904 2.689-8.06 1.179-.668 2.712-.534 4.686.406zM39.93 7.375c.09-.09.2-.17.32-.22.37-.15.81-.06 1.09.22.19.19.29.44.29.71 0 .06 0 .13-.02.19-.01.07-.03.13-.05.19-.03.06-.06.12-.09.17-.04.06-.08.11-.13.15-.19.19-.44.3-.7.3-.14 0-.26-.03-.39-.08a.871.871 0 01-.32-.22.645.645 0 01-.13-.15 2.116 2.116 0 01-.078-.145l-.012-.025c-.02-.06-.04-.12-.06-.19-.01-.06-.02-.13-.02-.19 0-.26.11-.52.3-.71z"/></symbol><symbol viewBox="0 0 491.858 491.858" id="minus" xmlns="http://www.w3.org/2000/svg"><path d="M465.167 211.613H26.69c-8.424 0-26.69 11.439-26.69 34.316s18.267 34.316 26.69 34.316h438.479c8.421 0 26.689-11.439 26.689-34.316s-18.268-34.316-26.691-34.316z"/></symbol><symbol viewBox="0 0 47 44" id="office" xmlns="http://www.w3.org/2000/svg"><path fill-rule="evenodd" clip-rule="evenodd" d="M12.16 2.5v6.89h15.064V2.5H12.16zm-.5-2.5a2 2 0 00-2 2v7.89a2 2 0 002 2h16.064a2 2 0 002-2V2a2 2 0 00-2-2H11.66zM3.496 16.234h39.133c2.03 0 3.609 1.579 3.609 3.496 0 2.03-1.58 3.609-3.496 3.609V42.49c0 .451-.451.902-1.015.902h-5.413c-.564 0-1.015-.338-1.015-.902V23.34H20.976v19.15c0 .451-.45.902-1.015.902H4.511c-.564 0-1.015-.338-1.015-.902V23.34C1.579 23.34 0 21.76 0 19.73a3.514 3.514 0 013.496-3.495zm15.563 7.105H5.413v8.11H19.06v-8.11zm0 10.026H5.413v8.11H19.06v-8.11zM40.825 23.34h-3.61v18.136h3.61V23.34zm1.804-5.188H3.496c-.902 0-1.579.677-1.579 1.579 0 .902.677 1.692 1.579 1.692h39.133c.902 0 1.692-.79 1.692-1.692 0-.902-.79-1.579-1.692-1.579zm-31.463 10.2c-1.353 0-1.353-1.916 0-1.916h2.143c1.24 0 1.24 1.917 0 1.917h-2.143zm0 7.403c-1.353 0-1.353 1.917 0 1.917h2.143c1.24 0 1.24-1.917 0-1.917h-2.143zm10.676-20.892H16.72a1.115 1.115 0 110-2.229h5.945a1.115 1.115 0 010 2.23h-.823z"/></symbol><symbol viewBox="0 0 482.6 482.6" id="phone" xmlns="http://www.w3.org/2000/svg"><path d="M98.339 320.8c47.6 56.9 104.9 101.7 170.3 133.4 24.9 11.8 58.2 25.8 95.3 28.2 2.3.1 4.5.2 6.8.2 24.9 0 44.9-8.6 61.2-26.3.1-.1.3-.3.4-.5 5.8-7 12.4-13.3 19.3-20 4.7-4.5 9.5-9.2 14.1-14 21.3-22.2 21.3-50.4-.2-71.9l-60.1-60.1c-10.2-10.6-22.4-16.2-35.2-16.2-12.8 0-25.1 5.6-35.6 16.1l-35.8 35.8c-3.3-1.9-6.7-3.6-9.9-5.2-4-2-7.7-3.9-11-6-32.6-20.7-62.2-47.7-90.5-82.4-14.3-18.1-23.9-33.3-30.6-48.8 9.4-8.5 18.2-17.4 26.7-26.1 3-3.1 6.1-6.2 9.2-9.3 10.8-10.8 16.6-23.3 16.6-36s-5.7-25.2-16.6-36l-29.8-29.8c-3.5-3.5-6.8-6.9-10.2-10.4-6.6-6.8-13.5-13.8-20.3-20.1-10.3-10.1-22.4-15.4-35.2-15.4-12.7 0-24.9 5.3-35.6 15.5l-37.4 37.4c-13.6 13.6-21.3 30.1-22.9 49.2-1.9 23.9 2.5 49.3 13.9 80 17.5 47.5 43.9 91.6 83.1 138.7zm-72.6-216.6c1.2-13.3 6.3-24.4 15.9-34l37.2-37.2c5.8-5.6 12.2-8.5 18.4-8.5 6.1 0 12.3 2.9 18 8.7 6.7 6.2 13 12.7 19.8 19.6 3.4 3.5 6.9 7 10.4 10.6l29.8 29.8c6.2 6.2 9.4 12.5 9.4 18.7s-3.2 12.5-9.4 18.7c-3.1 3.1-6.2 6.3-9.3 9.4-9.3 9.4-18 18.3-27.6 26.8l-.5.5c-8.3 8.3-7 16.2-5 22.2.1.3.2.5.3.8 7.7 18.5 18.4 36.1 35.1 57.1 30 37 61.6 65.7 96.4 87.8 4.3 2.8 8.9 5 13.2 7.2 4 2 7.7 3.9 11 6 .4.2.7.4 1.1.6 3.3 1.7 6.5 2.5 9.7 2.5 8 0 13.2-5.1 14.9-6.8l37.4-37.4c5.8-5.8 12.1-8.9 18.3-8.9 7.6 0 13.8 4.7 17.7 8.9l60.3 60.2c12 12 11.9 25-.3 37.7-4.2 4.5-8.6 8.8-13.3 13.3-7 6.8-14.3 13.8-20.9 21.7-11.5 12.4-25.2 18.2-42.9 18.2-1.7 0-3.5-.1-5.2-.2-32.8-2.1-63.3-14.9-86.2-25.8-62.2-30.1-116.8-72.8-162.1-127-37.3-44.9-62.4-86.7-79-131.5-10.3-27.5-14.2-49.6-12.6-69.7z"/></symbol><symbol viewBox="0 0 491.86 491.86" id="plus" xmlns="http://www.w3.org/2000/svg"><path d="M465.167 211.614H280.245V26.691c0-8.424-11.439-26.69-34.316-26.69s-34.316 18.267-34.316 26.69v184.924H26.69C18.267 211.614 0 223.053 0 245.929s18.267 34.316 26.69 34.316h184.924v184.924c0 8.422 11.438 26.69 34.316 26.69s34.316-18.268 34.316-26.69V280.245H465.17c8.422 0 26.69-11.438 26.69-34.316s-18.27-34.315-26.693-34.315z"/></symbol><symbol viewBox="0 0 58 60" id="produce" xmlns="http://www.w3.org/2000/svg"><path d="M21.09 0C17.129 8.553 7.603 1.443 2.637 6.59 3.793-2.263 11.521 4.872 21.091 0zM10.546 9.227c.74.007 1.302.725 1.319 1.318v16.663l6.59 3.543v-7.024c-.013-.903 1.11-1.604 1.916-1.194l16.539 8.28v-7.086c-.013-.903 1.11-1.604 1.916-1.194L57.28 31.76c.437.222.728.704.72 1.195V58c0 .69-.627 1.318-1.317 1.318H1.318C.628 59.318 0 58.69 0 58V10.545c0-.69.628-1.318 1.318-1.318h9.227zm-1.318 2.637h-6.59v44.818h52.727V33.778L39.544 25.87v7.086c0 .896-1.116 1.58-1.915 1.173L21.09 25.87v7.086c-.007.9-1.14 1.575-1.935 1.153l-9.227-4.943a1.346 1.346 0 01-.7-1.154V11.864zm40.205 28.34c.69 0 1.318.628 1.318 1.319v6.59c0 .69-.628 1.319-1.318 1.319h-9.227c-.69 0-1.319-.628-1.319-1.319v-6.59c0-.69.628-1.319 1.319-1.319h9.227zm-15.818 0c.69 0 1.318.628 1.318 1.319v6.59c0 .69-.628 1.319-1.318 1.319h-9.228c-.69 0-1.318-.628-1.318-1.319v-6.59c0-.69.628-1.319 1.318-1.319h9.228zm-15.819 0c.69 0 1.318.628 1.319 1.319v6.59c0 .69-.628 1.319-1.319 1.319H8.568c-.69 0-1.318-.628-1.318-1.319v-6.59c0-.69.628-1.319 1.318-1.319h9.227zm30.319 2.637h-6.591v3.954h6.59v-3.954zm-15.819 0h-6.59v3.954h6.59v-3.954zm-15.818 0h-6.59v3.954h6.59v-3.954z"/></symbol><symbol viewBox="0 0 58 35" id="school" xmlns="http://www.w3.org/2000/svg"><path fill-rule="evenodd" clip-rule="evenodd" d="M5.123 2.28H1.141A1.14 1.14 0 011.14 0h55.72a1.14 1.14 0 010 2.28h-3.98v30.846c0 .63-.51 1.14-1.14 1.14h-4.08a1.14 1.14 0 01-1.14-1.14v-6.349H11.48v6.349c0 .63-.51 1.14-1.14 1.14H6.264a1.14 1.14 0 01-1.14-1.14V2.28zm2.28 29.706H9.2V10.54H7.402v21.445zM11.48 10.54v13.957h35.04V10.54H11.48zM48.8 31.985h1.8V10.54h-1.8v21.445zM50.6 8.26V2.28H7.403v5.98h43.199zM31.22 6.368h-4.867a1.14 1.14 0 010-2.28h4.867a1.14 1.14 0 010 2.28z"/></symbol><symbol viewBox="0 0 56.966 56.966" id="search" xmlns="http://www.w3.org/2000/svg"><path d="M55.146 51.887L41.588 37.786A22.926 22.926 0 0046.984 23c0-12.682-10.318-23-23-23s-23 10.318-23 23 10.318 23 23 23c4.761 0 9.298-1.436 13.177-4.162l13.661 14.208c.571.593 1.339.92 2.162.92.779 0 1.518-.297 2.079-.837a3.004 3.004 0 00.083-4.242zM23.984 6c9.374 0 17 7.626 17 17s-7.626 17-17 17-17-7.626-17-17 7.626-17 17-17z"/></symbol><symbol viewBox="0 0 58 39" id="street" xmlns="http://www.w3.org/2000/svg"><path fill-rule="evenodd" clip-rule="evenodd" d="M30.615.287A.999.999 0 0029.913 0h-4.096a.999.999 0 00-.702.287.975.975 0 00-.291.694v2.33H6.082V.981c0-.26-.105-.51-.291-.694A1 1 0 005.089 0H.993a1 1 0 00-.702.287A.975.975 0 000 .981V38.02c0 .26.105.51.29.694A1 1 0 00.994 39H5.09a1 1 0 00.702-.287.975.975 0 00.29-.694V5.274h4.088v19.745H8.626c-.548 0-1.055.44-1.055.981v3.557c0 .541.507.98 1.055.98H22.28c.549 0 .931-.439.931-.98V26c0-.542-.382-.981-.93-.981h-1.667V5.274h4.21v32.745c0 .26.105.51.292.694a.999.999 0 00.702.287h4.096a.999.999 0 00.702-.287.975.975 0 00.29-.694V.98c0-.26-.104-.51-.29-.694zm22.283 25.31h2.655c.16.002.318-.04.454-.123a.816.816 0 00.313-.346.776.776 0 00-.133-.864l-4.625-5.156h2.495a.866.866 0 00.454-.136.84.84 0 00.189-1.249l-3.947-4.589h.876a.842.842 0 00.444-.117.818.818 0 00.312-.332.797.797 0 00-.09-.861l-5.834-7.39a.815.815 0 00-.184-.449.86.86 0 00-1.312.003l-6.412 7.83a.795.795 0 00.21 1.196c.134.081.29.123.447.12h.908l-3.976 4.581a.844.844 0 00-.123.897.845.845 0 00.309.356.872.872 0 00.455.14h2.676l-4.624 5.164a.782.782 0 00-.133.862c.068.142.177.26.313.343a.836.836 0 00.453.12h3.023l-4.453 5.37a.797.797 0 00.204 1.202c.135.082.29.124.449.122h8.813v5.15a.796.796 0 00.238.58.831.831 0 00.59.243h2.581a.823.823 0 00.579-.246.787.787 0 00.221-.578v-5.15h8.84a.839.839 0 00.446-.115.815.815 0 00.312-.33.818.818 0 00-.096-.876l-4.317-5.373zm-6.869 11.02h-.842V32.29h.842v4.325zm-9.568-5.974l4.453-5.338a.823.823 0 00-.201-1.225.865.865 0 00-.451-.131h-2.94l4.625-5.161a.785.785 0 00.133-.864.813.813 0 00-.313-.343.839.839 0 00-.453-.121h-2.708l3.975-4.582a.843.843 0 00.124-.896.846.846 0 00-.31-.356.871.871 0 00-.455-.14h-.976l4.559-5.565 4.392 5.566h-.976a.866.866 0 00-.454.135.84.84 0 00-.189 1.249l3.947 4.589h-2.535a.846.846 0 00-.455.125.82.82 0 00-.312.347.775.775 0 00.133.862l4.625 5.154h-2.535a.869.869 0 00-.448.134.844.844 0 00-.39.789.797.797 0 00.176.416l4.317 5.356H36.461zM4.096 1.963v35.075h-2.11V1.962h2.11zM21.224 26.98v1.595H9.557V26.98h11.667zM18.627 5.274v19.745h-6.472V5.274h6.472zM28.92 1.962v35.076h-2.11V1.962h2.11z"/></symbol><symbol viewBox="0 0 56 56" id="tree" xmlns="http://www.w3.org/2000/svg"><path fill-rule="evenodd" clip-rule="evenodd" d="M54.51 0H.77A1.211 1.211 0 000 .83v53.74c.12.415.416.711.83.83h53.621c.264-.1.49-.235.662-.419.135-.145.235-.32.287-.53V.831c-.119-.416-.416-.712-.89-.831zM9.787 38.673c-.03.231-.043.476-.057.721-.015.26-.03.518-.062.762-.12.89-.178 1.72-.236 2.61 0 .297-.06.534-.06.83 0 .198-.015.41-.028.622-.016.233-.031.466-.031.683l-.178 3.203-.033.369c-.018.205-.034.413-.047.618-.024.338-.04.67-.04.97 0 .712-.058 1.365-.058 2.077 0 .09-.006.181-.014.272-.017.206-.047.412-.047.617H2.254V2.195c.416 0 .771 0 1.185-.178h4.036c.236 0 .295.059.295.296 0 .593.119 1.246.177 1.84.03.232.045.45.059.662.015.22.031.43.06.642.12.949.178 1.839.239 2.788.058.356.058.712.058 1.068.059 1.127.059 2.194.059 3.262 0 .286-.027.559-.055.831-.031.291-.062.582-.062.889 0 .237.117.356.355.356.236 0 .356-.119.356-.356.058-1.127.119-2.313.119-3.44 0-.89-.06-1.78-.12-2.67l-.177-2.194c-.018-.2-.041-.4-.067-.6l-.052-.379-.014-.107c-.039-.29-.078-.581-.103-.872-.061-.593-.12-1.245-.18-1.898h6.703c.02.24.043.479.07.718l.051.439.014.128c.039.343.078.686.103 1.028.02.269.047.53.075.788.037.342.072.681.091 1.027.008.145.012.291.012.44.021.495.035.998.045 1.504.008.522.012 1.046.014 1.566v.904c0 .52-.055 1.067-.108 1.604l-.039.4-.031.368c-.12 1.127-.297 2.254-.594 3.381-.297 1.186-.771 2.313-1.305 3.44-.593 1.127-1.007 2.314-1.304 3.56a108.59 108.59 0 00-.95 4.21c-.177.772-.296 1.602-.414 2.433-.06.711-.18 1.364-.296 2.076l-.077.647c-.035.294-.068.584-.101.895-.045.205-.082.42-.115.636-.051.346-.088.696-.123 1.025-.03.204-.043.408-.057.612-.016.211-.031.422-.063.633a28.265 28.265 0 00-.236 2.076zm14.236-.474c-.119.83-.18 1.66-.238 2.49 0 .15-.015.283-.031.416a3.932 3.932 0 00-.027.415c-.012.136-.02.27-.028.401l-.014.238c-.025.477-.037.943-.078 1.437l-.177 2.966c-.06.712-.12 1.483-.12 2.195-.029.503-.042 1.02-.056 1.546v.022c-.016.52-.031 1.048-.063 1.575 0 .415-.058.771-.058 1.187-1.899 0-3.797 0-5.694-.119v-.06c0-1.957-.06-3.973-.06-5.93 0-.23.004-.463.01-.697l.021-.846c.016-.519.03-1.038.03-1.542 0-.297.013-.593.029-.89.015-.297.029-.593.029-.89.059-.77.059-1.601.12-2.431.058-.89.116-1.72.177-2.55.058-.95.178-1.958.297-2.907.117-1.068.295-2.136.592-3.144.06-.178-.118-.415-.297-.475-.178-.059-.356 0-.414.238-.059.267-.117.549-.176.831l-.018.07-.162.76c-.119.77-.178 1.482-.297 2.194-.06.475-.06.89-.119 1.305-.064.446-.11.908-.148 1.369-.03.347-.053.693-.076 1.03l-.012.152c0 .136-.01.264-.02.39l-.011.12c-.014.161-.03.323-.03.498l-.004.34c-.005.205-.015.407-.025.609-.016.311-.03.623-.03.949 0 .712-.06 1.424-.06 2.135 0 .15-.004.304-.01.46l-.02.37-.005.099a15.43 15.43 0 00-.023.732c-.059 2.076-.059 4.093-.059 6.169 0 .534.059 1.068.059 1.601h-6.643c0-.237.059-.415.059-.652v-.119c0-.395.015-.79.03-1.185l.012-.366c.008-.183.012-.366.014-.548l.002-.214c.06-.83.06-1.72.12-2.55.03-.333.046-.649.062-.966.014-.306.027-.612.057-.933l.177-2.61c.059-.652.12-1.364.178-2.075.057-.425.113-.864.164-1.31.055-.486.101-.982.133-1.478l.054-.594.123-1.304.032-.33.039-.337.047-.387c.045-.36.091-.721.12-1.082.04-.215.073-.425.1-.632.057-.42.098-.83.137-1.266.03-.272.074-.56.12-.846.044-.277.09-.553.118-.814.118-.534.178-1.127.295-1.72.12-.831.297-1.661.475-2.492.357-1.305.652-2.61 1.068-3.915a16.31 16.31 0 01.89-2.135 19.377 19.377 0 001.423-4.449c.119-.711.238-1.482.357-2.194a7.35 7.35 0 00.117-1.127c.061-1.72.12-3.5.12-5.22 0-.33-.026-.662-.051-.996l-.018-.263c-.033-.479-.053-.966.01-1.47-.035-.302-.068-.625-.102-.944l-.076-.716a1.151 1.151 0 01-.037-.137 2.1 2.1 0 01-.027-.167 3.587 3.587 0 00-.055-.29h12.635c.265 0 .398 0 .473.067.074.066.09.2.119.468l.177 1.779c.06.652.12 1.305.12 1.957.058.95.058 1.898.058 2.848-.02.258-.033.523-.047.79-.025.53-.05 1.07-.13 1.582a36.367 36.367 0 01-.499 3.103 17.89 17.89 0 01-.687 2.413c-.149.326-.297.667-.445 1.008-.149.341-.297.683-.446 1.009a16.917 16.917 0 00-1.244 3.44l-.195.738c-.1.39-.196.78-.29 1.174-.16.677-.312 1.362-.464 2.062-.108.4-.19.812-.258 1.231-.082.498-.146 1.006-.21 1.514l-.007.043c-.119.95-.297 1.957-.416 2.907-.119.711-.177 1.423-.236 2.135-.06.83-.178 1.601-.238 2.372-.059.534-.059.95-.118 1.365zm16.489 5.635c-.12.593-.178 1.245-.237 1.838-.238 1.602-.119 3.204-.119 4.805 0 .26.012.515.03.768.039.552.107 1.094.148 1.664v.237H27.582v-3.974l.006-.29.008-.282c.013-.318.031-.646.039-.977l.006-.35c.02-.22.033-.45.045-.68l.011-.312c.016-.346.032-.693.063-1.024.119-1.305.177-2.55.533-3.796.059-.237-.059-.415-.236-.474-.239-.06-.416.059-.475.296l-.357 2.313a8.936 8.936 0 00-.094.85l-.026.368c-.017.306-.033.612-.058.918l-.047.727c-.014.221-.027.44-.037.66-.02.403-.033.806-.033 1.222a91.986 91.986 0 00-.059 3.026l-.002 1.601v.178c-.95 0-1.838 0-2.668.06 0-.356.059-.653.059-1.01v-.177c0-.6.031-1.23.049-1.847.005-.237.01-.472.01-.703a31.7 31.7 0 00.058-1.162l.012-.29c.011-.323.025-.647.049-.98.029-.321.043-.642.056-.963.016-.332.031-.663.063-.995l.177-2.669c.059-.652.12-1.364.178-2.076l.115-.939c.076-.636.143-1.272.182-1.908.03-.233.043-.452.057-.67l.025-.334a8 8 0 01.037-.36c.05-.257.09-.513.123-.77.045-.337.08-.673.113-1.01l.178-1.601.049-.432.129-1.051a14.1 14.1 0 01.12-.801c.028-.179.058-.357.083-.536l.035-.265c.12-.77.178-1.542.356-2.254.297-1.364.533-2.728.89-4.092.295-1.127.653-2.314 1.186-3.381.416-.89.83-1.839 1.185-2.788.416-1.127.713-2.254.83-3.44.03-.35.075-.713.12-1.077.044-.377.09-.755.119-1.118.058-.593.119-1.186.119-1.78.017-.263.03-.526.037-.789l.008-.316c.01-.419.012-.837.014-1.256v-.485l-.178-2.788c-.059-.534-.178-1.127-.239-1.661v-.237h8.247c0 .178.015.356.03.534.015.177.028.355.028.533 0 .712 0 1.483.06 2.195l.178 2.313c.059 1.009.178 1.958.295 2.966.12.771.18 1.601.297 2.373.065.484.13.951.203 1.42.063.391.133.784.213 1.19.12.89.297 1.838.475 2.728.178.949.355 1.839.533 2.728.12.653.238 1.365.355 2.076.03.292.075.584.12.876.045.301.09.603.119.904.058.356.058.771.119 1.127.117.949.178 1.839.236 2.788v.237l.006.921.006.384c.006.345.012.69.014 1.035a32.69 32.69 0 01-.026 1.575c-.058.89-.178 1.78-.236 2.669-.06.652-.12 1.364-.238 2.016l-.012.072c-.07.452-.14.904-.223 1.355-.052.296-.111.591-.18.887-.238 1.245-.474 2.432-.712 3.736zm12.693 9.193h-4.033c0-.105-.008-.202-.016-.297l-.011-.117c-.016-.134-.032-.268-.032-.416 0-.415-.06-.83-.06-1.246l-.006-.164c-.057-1.662-.111-3.271-.111-4.937 0-.451.017-.92.042-1.388.02-.392.047-.784.075-1.162.06-.89.178-1.78.297-2.67a23.8 23.8 0 01.89-4.092l.157-.416c.066-.182.132-.367.199-.533.119-.356-.059-.593-.416-.534-.117 0-.237.178-.297.297-.236.712-.473 1.423-.653 2.135-.087.37-.165.74-.238 1.11l-.09.46c-.092.485-.177.97-.263 1.455-.12.593-.12 1.186-.178 1.78l-.18 3.024c-.058 1.187-.058 2.314-.058 3.5 0 .28.005.555.015.827.012.296.028.59.047.885l.057.898c0 .534.058 1.068.119 1.601h-6.88c-.022-.161-.042-.33-.06-.5l-.021-.21a8.824 8.824 0 01-.04-.773l-.005-.139c-.031-.768-.062-1.536-.084-2.304a76.195 76.195 0 01-.03-2.005c0-.526.022-1.072.077-1.614.037-.376.09-.75.162-1.115.035-.235.074-.47.115-.705.07-.405.149-.81.229-1.214l.24-1.187c.104-.507.207-1.013.305-1.52.115-.504.181-1.033.246-1.555.035-.276.07-.55.111-.818l.012-.075c.113-.865.227-1.731.283-2.653l.006-.087c.058-.857.113-1.662.113-2.523 0-.32.006-.635.012-.944.014-.606.027-1.196-.012-1.784-.058-.95-.178-1.958-.236-2.907-.06-.534-.12-1.127-.178-1.72-.06-.332-.105-.663-.15-.995a26.28 26.28 0 00-.147-.962l-.13-.774c-.047-.28-.098-.566-.153-.855a18.484 18.484 0 00-.133-.625c-.101-.38-.191-.772-.275-1.165a82.317 82.317 0 01-.219-1.066l-.1-.498a31.331 31.331 0 01-.402-2.24l-.011-.073c-.063-.316-.11-.648-.157-.988l-.088-.605-.052-.305a11.416 11.416 0 01-.088-.506l-.04-.288c-.042-.328-.075-.657-.109-.986a9.618 9.618 0 01-.129-.741c-.043-.312-.076-.625-.109-.92a9.333 9.333 0 01-.049-.537l-.012-.137a7.306 7.306 0 00-.058-.63c-.117-.771-.178-1.602-.237-2.373 0-.297-.06-.653-.06-.949a8.31 8.31 0 00-.008-.38l-.006-.174c-.017-.409-.045-.817-.045-1.226V2.195l1.457-.001a178.55 178.55 0 004.711-.059c0 .208-.015.4-.03.594a8.168 8.168 0 00-.028.593c-.059.059-.059.118-.059.178 0 .267-.015.533-.031.8s-.03.534-.03.801c-.029.757-.042 1.5-.056 2.235v.019a122.78 122.78 0 01-.06 2.254c0 .652-.061 1.245-.061 1.898 0 .445.014.904.03 1.364l.01.427c.013.316.02.63.02.938.018.232.032.464.041.697l.018.46c.014.385.03.77.059 1.156l.005.084c.06.862.118 1.723.233 2.585a35.994 35.994 0 001.066 6.228c.06.356.18.712.358 1.008.117.238.474.297.71.178.297-.118.356-.356.297-.652-.1-.415-.204-.83-.31-1.245a42.406 42.406 0 01-.58-2.492c-.236-.95-.295-1.957-.414-2.906l-.178-1.78-.178-3.025c0-.534-.06-1.008-.06-1.483 0-.83-.059-1.66-.059-2.49 0-.33.006-.658.014-.987l.018-.705a55.65 55.65 0 00.027-1.512c.06-.89.06-1.78.119-2.67l.074-.954c.041-.491.092-1.003.162-1.536h6.051v50.832zm-13.74-26.45c-.05-.431-.11-.87-.197-1.309-.239-1.423-.594-2.906-1.127-4.27a11.35 11.35 0 00-.528-1.121 5.744 5.744 0 00-1.135-1.49c-.355-.355-.769-.593-1.304-.593-.772-.059-1.364.297-1.838.831-.533.534-.89 1.246-1.188 1.957a19.073 19.073 0 00-1.244 4.449c-.177 1.305-.357 2.67-.474 4.034-.12.948-.12 1.897-.12 2.846v2.255c.06 1.067.12 1.838.237 2.55.03.408.074.83.125 1.252l.064.523c.034.262.07.521.108.775.07.514.168 1.027.285 1.54.181.792.412 1.584.664 2.375.416 1.246.89 2.432 1.898 3.322.295.271.633.45.985.528.496.11 1.021.02 1.508-.29a3.14 3.14 0 00.968-.906c.196-.27.36-.567.514-.874.356-.771.711-1.661.95-2.492.296-1.008.532-2.075.71-3.143.174-.756.234-1.568.291-2.326l.006-.047c.06-.42.12-.853.164-1.295.043-.433.072-.874.072-1.315 0-1.364 0-2.787-.058-4.152l-.047-.619a218.82 218.82 0 00-.131-1.694c-.06-.421-.105-.857-.158-1.3zm-.91 10.317c-.117.83-.178 1.72-.356 2.55-.177.89-.355 1.72-.593 2.55a12.757 12.757 0 01-.493 1.517 6.99 6.99 0 01-.515 1.034 4.483 4.483 0 01-.43.624 6.79 6.79 0 01-.459.503c-.227.225-.498.308-.758.249a.892.892 0 01-.43-.249 5.13 5.13 0 01-.83-1.067c-.771-1.305-1.127-2.788-1.423-4.27l-.15-.894c-.058-.34-.112-.677-.163-1.016-.06-.407-.115-.817-.162-1.235a10.867 10.867 0 01-.178-1.957c-.023-.466-.047-.932-.066-1.399a53.13 53.13 0 01-.053-2.16c0-.417.016-.833.037-1.25.022-.388.049-.775.076-1.163l.006-.078c.073-.746.145-1.47.227-2.186.056-.48.117-.956.19-1.432.236-1.424.591-2.907 1.126-4.27.139-.332.276-.662.442-.975.193-.36.425-.697.744-.983.336-.302.613-.414.877-.37a.961.961 0 01.427.21c.059.046.118.1.178.16.2.2.38.42.537.654.217.32.395.663.532 1.007.083.232.167.465.248.698l.123.364c.158.476.299.953.4 1.429.106.459.211.918.305 1.377.045.223.086.445.125.668l.045.268.095.522c.082.458.157.901.202 1.376.029.238.044.46.06.682.014.223.027.445.057.682l.056.545.034.373c.017.252.029.504.029.743v1.661c0 .593.058 1.127.119 1.66l-.006.09c-.059.919-.117 1.838-.232 2.758zm-2.373-12.04c.652.83.949 1.897 1.127 2.905.177.89.297 1.72.355 2.61.06.712.06 1.424.06 2.136 0 .217.007.435.012.652.014.435.028.87-.011 1.305-.12 1.424-.297 2.847-.83 4.152-.147.365-.27.707-.454 1.027-.115.2-.254.392-.437.575-.711.712-1.543.474-2.076-.238a5.342 5.342 0 01-.612-1.124 8.375 8.375 0 01-.457-1.663l-.355-2.136-.018-.195a18.26 18.26 0 01-.101-1.703c0-.257-.006-.514-.012-.771a14.966 14.966 0 01.012-1.542c.119-1.542.297-3.085.832-4.508.236-.593.474-1.186.949-1.66.399-.367.816-.472 1.201-.377.301.073.58.268.815.554zm0 13.7c.474-1.304.652-2.668.83-4.092.04-.49.025-.98.011-1.412-.005-.195-.011-.379-.011-.545h.06c-.06-.83-.06-1.661-.119-2.491 0-.297-.059-.653-.119-.95a21.528 21.528 0 00-.475-2.076c-.177-.593-.414-1.186-.83-1.66-.297-.356-.594-.356-.83-.06-.355.356-.593.83-.771 1.305-.533 1.424-.711 2.907-.83 4.449a12.989 12.989 0 000 2.135c0 .402.033.804.072 1.206.035.37.078.738.105 1.108.059 1.008.297 2.016.653 3.025.178.474.416.89.713 1.304.294.357.472.238.77 0 .357-.355.593-.77.77-1.245z"/></symbol><symbol viewBox="0 0 11 7" id="filter-arrow" xmlns="http://www.w3.org/2000/svg"><path fill-rule="evenodd" clip-rule="evenodd" d="M5.9501 6.89948L5.94931 6.90027L0.996078 1.94704L2.05674 0.886377L5.95013 4.77977L9.83773 0.892175L10.8984 1.95283L5.95092 6.9003L5.9501 6.89948Z" fill="#7D922B"/></symbol></svg>