<svg width="193" height="40" viewBox="0 0 193 40" fill="none" xmlns="http://www.w3.org/2000/svg">
<g clip-path="url(#clip0_57_60)">
<path d="M52.4264 6.4798L38.5767 14.4162L29.415 9.16486V18.2339L38.5767 23.5159L52.4264 15.5488V6.4798Z" fill="#9FB101"/>
<path d="M43.2939 22.1724V39.2066H52.4267V16.923L43.2939 22.1724Z" fill="#757575"/>
<path d="M28.2418 17.5785L14.3922 9.6421L0.54248 17.5785V8.47877L14.3922 0.544312L28.2418 8.47877V17.5785Z" fill="#FF8400"/>
<path d="M19.0801 27.1554L13.9116 30.1088H9.67717V13.6994L0.54248 18.9507V39.2066H15.2336L28.2418 31.7781V18.9507L19.0801 13.6994V27.1554Z" fill="#757575"/>
<path fill-rule="evenodd" clip-rule="evenodd" d="M63.2117 6.95703H63.9335C64.5338 6.95703 64.9854 7.16594 65.2845 7.64315C65.6454 8.17978 65.7342 8.89657 65.7342 9.55202C65.7342 10.2075 65.6435 10.9243 65.2845 11.4609C64.9545 11.9688 64.4739 12.147 63.9335 12.147H63.2117V13.0114H61.9804V12.147H61.2586C60.7471 12.147 60.2665 11.9688 59.9076 11.4609C59.5775 10.9243 59.4868 10.2075 59.4868 9.55202C59.4868 8.89657 59.5775 8.17978 59.9076 7.64315C60.2376 7.16594 60.6892 6.95703 61.2586 6.95703H61.9804V6.09268H63.2117V6.95703ZM168.873 11.641H171.728V13.0133H168.273C167.673 13.0133 167.432 12.5955 167.432 11.94V7.13719C167.432 6.51048 167.673 6.09268 168.273 6.09268H171.728V7.43425H168.873C168.723 7.43425 168.663 7.52433 168.663 7.70256V8.83715H170.645V10.2094H168.663V11.3727C168.663 11.5816 168.723 11.641 168.873 11.641ZM192.217 6.09268H191.586C191.105 6.09268 190.955 6.36099 190.684 6.74813L188.581 10.3282V6.09268H187.378V13.0133H188.009C188.37 13.0133 188.61 12.835 188.851 12.4172L190.983 8.77774V13.0133H192.215V6.09268H192.217ZM178.006 13.0133H176.655L178.788 6.30158C178.848 6.18275 178.938 6.09268 179.058 6.09268H179.99C180.141 6.09268 180.26 6.15209 180.32 6.30158L182.453 13.0133H181.102L179.569 8.17978L178.008 13.0133H178.006ZM157.156 13.0133H159.8C161.333 13.0133 161.904 12.1777 161.904 10.8955C161.904 9.79159 161.455 8.92723 159.8 8.89657H158.328V7.43425H161.362C161.331 6.27091 160.611 6.09268 160.071 6.09268H157.156V13.0133ZM158.328 11.6717V10.15H159.77C160.401 10.15 160.671 10.449 160.671 10.8955C160.671 11.4321 160.341 11.6717 159.8 11.6717H158.328ZM148.774 11.641H151.629V13.0133H148.174C147.574 13.0133 147.333 12.5955 147.333 11.94V7.13719C147.333 6.51048 147.574 6.09268 148.174 6.09268H151.629V7.43425H148.774C148.624 7.43425 148.564 7.52433 148.533 7.70256V8.83715H150.515V10.2094H148.533V11.3727C148.564 11.5816 148.624 11.641 148.774 11.641ZM136.187 13.0133H137.418V8.50943L138.53 10.6272C138.74 11.0143 139.19 11.0143 139.431 10.6272L140.574 8.47876V13.0133H141.805V6.09268H141.083C140.693 6.09268 140.423 6.24217 140.122 6.77879L139.011 9.01539L137.839 6.71747C137.629 6.35907 137.418 6.09076 136.878 6.09076H136.187V13.0114V13.0133ZM122.337 13.0133H120.986L123.119 6.30158C123.179 6.18275 123.269 6.09268 123.42 6.09268H124.352C124.503 6.09268 124.622 6.15209 124.653 6.30158L126.786 13.0133H125.464L125.074 11.7905H122.731L122.341 13.0133H122.337ZM124.561 10.2688L123.901 8.17978L123.21 10.2688H124.561ZM111.852 12.8657V6.09268H113.083V8.83715L114.916 6.09268H116.478L114.135 9.52327L116.659 13.0133H115.067L113.085 10.2688V13.0133H111.854V12.8638L111.852 12.8657ZM106.324 6.09268H105.693C105.212 6.09268 105.062 6.36099 104.792 6.74813L102.688 10.3282V6.09268H101.486V13.0133H102.117C102.478 13.0133 102.717 12.835 102.958 12.4172L105.091 8.77774V13.0133H106.322V6.09268H106.324ZM91.6638 13.0133H92.8951V10.9243H94.0068C95.2381 10.9243 96.2591 10.0887 96.2591 8.50751C96.2591 7.07586 95.4485 6.09076 94.1265 6.09076H91.6638V13.0114V13.0133ZM92.8951 9.58269V7.46491H94.0068C94.6379 7.46491 95.0278 7.82331 95.0278 8.50943C95.0278 9.13613 94.6669 9.58269 94.0357 9.58269H92.8932H92.8951ZM81.3885 13.0133H84.0615C85.5939 13.0133 86.1652 12.1777 86.1652 10.8955C86.1652 9.79159 85.6846 8.92723 84.0615 8.89657H82.5889V7.43425H85.6229C85.563 6.27091 84.8412 6.09268 84.3317 6.09268H81.3885V13.0133ZM82.5908 11.6717V10.15H84.0036C84.6347 10.15 84.9358 10.449 84.9358 10.8955C84.9358 11.4321 84.6058 11.6717 84.0654 11.6717H82.5928H82.5908ZM72.0144 13.0133H70.6634L72.7961 6.30158C72.8559 6.18275 72.9466 6.09268 73.0663 6.09268H74.0274C74.1471 6.09268 74.2687 6.15209 74.3285 6.30158L76.4612 13.0133H75.1102L74.7493 11.7905H72.4062L72.0164 13.0133H72.0144ZM74.2378 10.2688L73.5777 8.17978L72.8868 10.2688H74.2378ZM63.2117 10.746V8.35994H63.9335C64.5048 8.35994 64.5646 8.92723 64.5936 9.49453C64.5936 9.67276 64.5936 9.88167 64.5627 10.0618C64.5029 10.5084 64.3215 10.7479 63.9316 10.7479H63.2098L63.2117 10.746ZM61.9804 8.35994V10.746H61.2586C60.8976 10.746 60.7182 10.5065 60.6583 10.0599C60.6274 9.88167 60.6274 9.67276 60.6274 9.49261C60.6274 8.92531 60.7182 8.35802 61.2586 8.35802H61.9804V8.35994Z" fill="#FF8400"/>
<path d="M132.869 22.663H126.226V39.2066H130.016V34.421H132.558C135.903 34.421 138.734 32.4527 138.734 28.5161C138.734 24.5796 136.169 22.6611 132.869 22.6611V22.663ZM132.668 30.6799H130.014V26.452H132.6C133.872 26.452 134.899 27.0117 134.899 28.5411C134.899 29.9746 133.874 30.6799 132.668 30.6799Z" fill="#757575"/>
<path d="M76.2212 39.2066V22.663H78.294C79.5659 22.7109 80.3456 23.1249 81.0597 24.2672L83.8254 29.1026L86.5004 24.4147C87.2145 23.2725 87.9498 22.7148 89.2429 22.6649H91.4064V39.2085H87.6371V29.5645L85.1841 33.6218C84.4932 34.6912 83.0437 34.6912 82.3528 33.5969L79.9673 29.6373V39.2085H76.2212V39.2066Z" fill="#757575"/>
<path d="M115.576 35.4425H123.068V39.2085H113.814C112.164 39.1836 111.317 38.2368 111.293 36.4391V25.4344C111.317 23.6367 112.164 22.6899 113.814 22.665H123.068V26.431H115.576C115.242 26.431 115.086 26.6015 115.086 26.9657V29.0068H120.237V32.7479H115.086V34.9097C115.063 35.2489 115.242 35.4444 115.576 35.4444V35.4425Z" fill="#757575"/>
<path d="M168.857 23.3434C168.657 22.8815 168.232 22.686 167.788 22.663H165.312C164.866 22.686 164.53 22.9064 164.332 23.3664L158.623 39.2066H162.77L163.774 36.4372H169.46L170.463 39.2066H174.589L168.857 23.3434ZM165.291 32.284L166.605 28.6407L167.943 32.284H165.289H165.291Z" fill="#757575"/>
<path d="M176.25 39.2066L181.958 23.3664C182.159 22.9045 182.493 22.686 182.939 22.6611H185.413C185.859 22.686 186.284 22.8796 186.484 23.3415L192.214 39.2047H188.09C186.805 35.6821 185.519 32.1595 184.232 28.6369C182.954 32.1595 181.675 35.6821 180.397 39.2047H176.25V39.2066Z" fill="#757575"/>
<path d="M108.14 23.7171V39.2066H104.326V26.8181H98.3718V39.2066H94.5601V23.7171C94.5601 23.1345 94.9924 22.663 95.527 22.663H107.171C107.705 22.663 108.138 23.1345 108.138 23.7171H108.14Z" fill="#757575"/>
<path d="M73.0658 22.6628V39.2063H69.2541V29.9015C67.4013 32.7993 65.5446 35.6971 63.6918 38.5949C63.4467 38.9782 63.0453 39.2063 62.6168 39.2063H59.4883V22.6628H63.3V31.9561C65.1528 29.0621 67.0095 26.1662 68.8642 23.2742C69.1093 22.8928 69.5108 22.6647 69.9392 22.6647H73.0678L73.0658 22.6628Z" fill="#757575"/>
<path d="M155.467 22.663V39.2066H151.655V29.9018C149.803 32.7996 147.946 35.6974 146.093 38.5952C145.848 38.9785 145.447 39.2066 145.018 39.2066H141.89V22.663H145.701V31.9563C147.554 29.0623 149.411 26.1665 151.266 23.2744C151.511 22.893 151.912 22.6649 152.341 22.6649H155.469L155.467 22.663Z" fill="#757575"/>
</g>
<defs>
<clipPath id="clip0_57_60">
<rect width="193" height="40" fill="white"/>
</clipPath>
</defs>
</svg>
