<svg xmlns="http://www.w3.org/2000/svg" xmlns:xlink="http://www.w3.org/1999/xlink"><symbol id="sprite-cart" viewBox="0 0 16 16"><g><path d="m5.27 9.92 5.814-.485a1 1 0 0 1 .09-.002 2.17 2.17 0 0 0 1.257-.346 2 2 0 0 0 .39-1.216 1 1 0 0 1 .004-.094l.005-.04.424-3.82a.75.75 0 0 1 1.491.166l-.424 3.82a3.5 3.5 0 0 1-.788 2.21.8.8 0 0 1-.147.138 3.67 3.67 0 0 1-2.22.682l-5.77.481A.75.75 0 0 1 5.27 9.92"/><path d="M4 3.25h10.667a.75.75 0 0 1 0 1.5H4a.75.75 0 0 1 0-1.5"/><circle cx="3.99935" cy="13.3333" r="1.33333" stroke-width="1.5"/><circle cx="11.3333" cy="13.3333" r="1.33333" stroke-width="1.5"/><path d="M5.333 12.583H10a.75.75 0 0 1 0 1.5H5.333a.75.75 0 0 1 0-1.5"/><path d="M1.333.583h.64a2.116 2.116 0 0 1 2.06 1.565l.002.008 1.983 7.708a2 2 0 0 1 .06.375 2 2 0 0 1 .005.135v.001a2.06 2.06 0 0 1-.431 1.258l-.637.825a.75.75 0 1 1-1.188-.916l.638-.826v-.001a.56.56 0 0 0 .118-.341l-.001-.035a1 1 0 0 0-.016-.101L2.583 2.535a.616.616 0 0 0-.599-.452h-.651a.75.75 0 0 1 0-1.5"/></g></symbol><use xlink:href="#sprite-cart" width="16" height="16" y="0"/><view id="sprite-cart-view" viewBox="0 0 16 16"/><symbol id="sprite-chevron" viewBox="0 0 24 24"><path d="M7.469 9.414 12 13.04l4.531-3.626a.75.75 0 0 1 .938 1.172l-5 4a.75.75 0 0 1-.938 0l-5-4a.75.75 0 0 1 .938-1.172"/></symbol><use xlink:href="#sprite-chevron" width="24" height="24" y="16"/><view id="sprite-chevron-view" viewBox="0 16 24 24"/><symbol id="sprite-close" viewBox="0 0 16 16"><path d="M11.354 5.354 8.707 8l2.647 2.646a.5.5 0 0 1-.708.708L8 8.707l-2.646 2.647a.5.5 0 0 1-.708-.708L7.293 8 4.646 5.354a.5.5 0 0 1 .708-.708L8 7.293l2.646-2.647a.5.5 0 0 1 .708.708"/></symbol><use xlink:href="#sprite-close" width="16" height="16" y="40"/><view id="sprite-close-view" viewBox="0 40 16 16"/><symbol id="sprite-phone" viewBox="0 0 18 18"><path d="M4.984 2.25a1.5 1.5 0 0 1 1.393.943l.61 1.526a1.5 1.5 0 0 1-.721 1.898L6 6.75s.375 1.875 1.875 3.375S11.25 12 11.25 12l.133-.266a1.5 1.5 0 0 1 1.898-.721l1.526.61c.57.228.943.78.943 1.393v1.234a1.5 1.5 0 0 1-1.5 1.5c-6.627 0-12-5.373-12-12a1.5 1.5 0 0 1 1.5-1.5zM9.75 4.688a3.563 3.563 0 0 1 3.563 3.562.562.562 0 1 1-1.126 0A2.44 2.44 0 0 0 9.75 5.813a.563.563 0 0 1 0-1.125m0-3a6.565 6.565 0 0 1 6.563 6.562.562.562 0 1 1-1.125 0A5.44 5.44 0 0 0 9.75 2.813a.563.563 0 0 1 0-1.126"/></symbol><use xlink:href="#sprite-phone" width="18" height="18" y="56"/><view id="sprite-phone-view" viewBox="0 56 18 18"/><symbol id="sprite-search" viewBox="0 0 16 16"><g><path d="m13.178 12.117 2.02 2.02a.75.75 0 0 1-1.062 1.06l-2.019-2.02a7.08 7.08 0 0 1-4.45 1.573A7.083 7.083 0 0 1 .584 7.667 7.083 7.083 0 0 1 7.667.583a7.083 7.083 0 0 1 7.083 7.084 7.08 7.08 0 0 1-1.572 4.45m.072-4.45a5.583 5.583 0 0 0-5.583-5.584 5.583 5.583 0 0 0-5.583 5.584 5.583 5.583 0 0 0 5.583 5.583 5.583 5.583 0 0 0 5.583-5.583" fill-rule="evenodd"/></g></symbol><use xlink:href="#sprite-search" width="16" height="16" y="74"/><view id="sprite-search-view" viewBox="0 74 16 16"/><symbol id="sprite-zoom-text" viewBox="0 0 20 20"><path d="m17.803 17.197-.968-.969a5.75 5.75 0 0 1-3.501 1.189 5.75 5.75 0 1 1 0-11.5 5.75 5.75 0 0 1 5.75 5.75 5.75 5.75 0 0 1-1.189 3.5l.969.97a.75.75 0 0 1-1.06 1.06m-4.47-1.28a4.25 4.25 0 0 0 4.25-4.25 4.25 4.25 0 0 0-4.25-4.25 4.25 4.25 0 0 0 0 8.5M12.5 4.083H1.667a.75.75 0 0 1 0-1.5H12.5a.75.75 0 0 1 0 1.5m-6.666 8.334H1.667a.75.75 0 0 1 0-1.5h4.167a.75.75 0 0 1 0 1.5m0-4.167H1.667a.75.75 0 0 1 0-1.5h4.167a.75.75 0 0 1 0 1.5" fill-rule="evenodd"/></symbol><use xlink:href="#sprite-zoom-text" width="20" height="20" y="90"/><view id="sprite-zoom-text-view" viewBox="0 90 20 20"/></svg>